<svg width="94" height="16" viewBox="0 0 94 16" fill="none" xmlns="http://www.w3.org/2000/svg">
<path fill-rule="evenodd" clip-rule="evenodd" d="M34.4888 15.3927C34.7109 15.6159 34.5528 16 34.2347 16H27.357C26.5608 16 25.7646 15.6803 25.1924 15.1032L15.704 5.56592C15.576 5.40505 15.3539 5.40505 15.1939 5.56592L5.70545 15.1032C5.13131 15.6783 4.36911 16 3.5409 16H0.358089C0.0400074 16 -0.120033 15.6159 0.104024 15.3927L14.1136 1.34322C15.2919 0.126681 16.1201 0 17.3284 0C18.5367 0 19.3349 0.128692 20.5432 1.34322L34.4888 15.3927ZM60.1494 10.784C59.9573 10.5929 59.9573 10.3034 60.1494 10.1124L63.3322 7.10419C64.5745 5.85547 64.5745 3.80847 63.3322 2.55976L61.8358 1.05567C61.1676 0.384064 60.2434 0 59.3211 0H38.0537C37.5756 0 37.1615 0.416237 37.1615 0.89682V15.1052C37.1615 15.5858 37.5756 16.002 38.0537 16.002H42.989C43.4991 16.002 43.8812 15.5858 43.8812 15.1052V3.58326C43.8812 3.36006 44.0712 3.1992 44.2633 3.1992H54.1018C54.866 3.1992 55.5982 3.48674 56.1083 4.03167L57.8268 5.72879C58.1768 6.08068 58.1768 6.65779 57.8268 7.00968L57.3166 7.52243C56.9986 7.84215 56.5844 8.00302 56.1383 8.00302H49.2286C48.9105 8.00302 48.7504 8.38708 48.9745 8.61028L55.9143 15.5858C56.2003 15.8411 56.5504 16.002 56.9325 16.002H64.4785C64.7965 16.002 64.9566 15.6179 64.7325 15.3947L60.1474 10.786L60.1494 10.784ZM93.6399 12.8008H80.0124C79.0582 12.8008 78.166 12.4167 77.4978 11.7451L73.4227 7.68129C72.7226 6.9775 72.7226 5.85748 73.4227 5.1537L74.7271 3.84265C75.1092 3.45859 75.6513 3.23539 76.1914 3.23539L93.6379 3.20322C93.956 3.20322 94.116 2.81915 93.892 2.59595L91.7274 0.420259C91.4734 0.164886 91.0913 0.00402162 90.7092 0.00402162H74.7591C73.1667 0.00402162 71.6383 0.643459 70.492 1.79565L67.0531 5.22006C65.3967 6.91718 65.3967 9.63579 67.0531 11.3007L69.9819 14.2124C71.0962 15.3646 72.6565 16.004 74.249 16.004H90.7412C91.0913 16.004 91.4734 15.8432 91.7274 15.5878L93.892 13.4121C94.114 13.1889 93.956 12.8048 93.6379 12.8048L93.6399 12.8008Z" fill="#0078AE"/>
</svg>