<svg preserveAspectRatio="none" width="100%" height="100%" overflow="visible" style="display: block;" viewBox="0 0 16 16" fill="none" xmlns="http://www.w3.org/2000/svg">
<g id="alert-triangle">
<path id="Vector" fill-rule="evenodd" clip-rule="evenodd" d="M5.69632 2.65728C6.7252 0.892538 9.27491 0.892547 10.3038 2.65729L14.966 10.654C16.0024 12.4318 14.7201 14.6638 12.6622 14.6638H3.33779C1.27996 14.6638 -0.00239732 12.4318 1.03407 10.654L5.69632 2.65728ZM9.15191 3.32885C8.63748 2.44647 7.36262 2.44647 6.84818 3.32884L2.18593 11.3256C1.6677 12.2145 2.30888 13.3305 3.33779 13.3305H12.6622C13.6911 13.3305 14.3323 12.2145 13.8141 11.3256L9.15191 3.32885ZM8 5.33333C8.36819 5.33333 8.66667 5.63181 8.66667 6V8.66667C8.66667 9.03486 8.36819 9.33333 8 9.33333C7.63181 9.33333 7.33333 9.03486 7.33333 8.66667V6C7.33333 5.63181 7.63181 5.33333 8 5.33333ZM7.16681 11.3334C7.16681 10.8732 7.53991 10.5001 8.00015 10.5001C8.46038 10.5001 8.83348 10.8732 8.83348 11.3334C8.83348 11.7936 8.46038 12.1667 8.00015 12.1667C7.53991 12.1667 7.16681 11.7936 7.16681 11.3334Z" fill="var(--fill-0, #8A5200)"/>
</g>
</svg>
