<svg preserveAspectRatio="none" width="100%" height="100%" overflow="visible" style="display: block;" viewBox="0 0 142 24" fill="none" xmlns="http://www.w3.org/2000/svg">
<g id="Arc Logo" clip-path="url(#clip0_0_147)">
<path id="Vector" d="M52.1001 23.0891C52.4356 23.4239 52.1968 24 51.7163 24H41.3265C40.1237 24 38.921 23.5204 38.0567 22.6548L23.7231 8.34887C23.5297 8.10758 23.1942 8.10758 22.9525 8.34887L8.61888 22.6548C7.75155 23.5174 6.60015 24 5.34903 24H0.540947C0.0604409 24 -0.181323 23.4239 0.157146 23.0891L21.3206 2.01483C23.1005 0.190021 24.3517 0 26.177 0C28.0023 0 29.2081 0.193038 31.0334 2.01483L52.1001 23.0891ZM90.8639 16.1759C90.5738 15.8894 90.5738 15.4551 90.8639 15.1685L95.672 10.6563C97.5487 8.78321 97.5487 5.71271 95.672 3.83964L93.4115 1.58351C92.4022 0.576097 91.006 0 89.6128 0H57.4854C56.7631 0 56.1376 0.624356 56.1376 1.34523V22.6578C56.1376 23.3787 56.7631 24.003 57.4854 24.003H64.9408C65.7114 24.003 66.2886 23.3787 66.2886 22.6578V5.37489C66.2886 5.04009 66.5757 4.79879 66.8658 4.79879H81.7283C82.8827 4.79879 83.9888 5.23011 84.7594 6.0475L87.3553 8.59319C87.8842 9.12102 87.8842 9.98668 87.3553 10.5145L86.5847 11.2836C86.1042 11.7632 85.4786 12.0045 84.8047 12.0045H74.3666C73.8861 12.0045 73.6443 12.5806 73.9828 12.9154L84.4663 23.3787C84.8984 23.7617 85.4273 24.003 86.0045 24.003H97.4036C97.8841 24.003 98.1259 23.4269 97.7874 23.0921L90.8609 16.179L90.8639 16.1759ZM141.456 19.2012H120.87C119.428 19.2012 118.08 18.6251 117.071 17.6177L110.915 11.5219C109.857 10.4663 109.857 8.78623 110.915 7.73055L112.886 5.76398C113.463 5.18788 114.282 4.85309 115.098 4.85309L141.453 4.80483C141.934 4.80483 142.175 4.22873 141.837 3.89393L138.567 0.630388C138.183 0.247329 137.606 0.00603242 137.029 0.00603242H112.934C110.528 0.00603242 108.22 0.965188 106.488 2.69348L101.293 7.83009C98.7908 10.3758 98.7908 14.4537 101.293 16.9511L105.717 21.3186C107.401 23.0469 109.758 24.006 112.163 24.006H137.077C137.606 24.006 138.183 23.7647 138.567 23.3817L141.837 20.1181C142.172 19.7833 141.934 19.2072 141.453 19.2072L141.456 19.2012Z" fill="var(--fill-0, #0078AE)"/>
</g>
<defs>
<clipPath id="clip0_0_147">
<rect width="142" height="24" fill="white"/>
</clipPath>
</defs>
</svg>
