<svg preserveAspectRatio="none" width="100%" height="100%" overflow="visible" style="display: block;" viewBox="0 0 16 16" fill="none" xmlns="http://www.w3.org/2000/svg">
<g id="arrow-01-right">
<path id="Vector" fill-rule="evenodd" clip-rule="evenodd" d="M8.19526 3.5286C8.45561 3.26825 8.87772 3.26825 9.13807 3.5286L13.1381 7.52859C13.2631 7.65362 13.3333 7.82319 13.3333 8C13.3333 8.17681 13.2631 8.34638 13.1381 8.4714L9.13807 12.4714C8.87772 12.7318 8.45561 12.7318 8.19526 12.4714C7.93491 12.2111 7.93491 11.7889 8.19526 11.5286L11.0572 8.66667L3.33333 8.66667C2.96514 8.66667 2.66667 8.36819 2.66667 8C2.66667 7.63181 2.96514 7.33333 3.33333 7.33333L11.0572 7.33333L8.19526 4.4714C7.93491 4.21105 7.93491 3.78894 8.19526 3.5286Z" fill="var(--fill-0, #006FA3)"/>
</g>
</svg>
