<svg preserveAspectRatio="none" width="100%" height="100%" overflow="visible" style="display: block;" viewBox="0 0 28.5531 46.8008" fill="none" xmlns="http://www.w3.org/2000/svg">
<g id="Group" opacity="0.47">
<path id="Vector" d="M0.0318442 38.0645H13.7581C14.4654 38.0645 15.0333 38.6921 15.0333 39.4612V45.5738C15.0333 46.0657 15.6269 46.2467 15.8592 45.8283L27.4076 24.9119C28.0323 23.781 28.0219 22.3673 27.387 21.2477L15.8541 0.975983C15.6166 0.563197 15.0333 0.744145 15.0333 1.23609V7.09991C15.0333 7.87459 14.4602 8.4966 13.7581 8.4966H0.0318442" fill="url(#paint0_linear_0_114)"/>
<path id="Vector_2" d="M15.4824 46.8008C15.3791 46.8008 15.2759 46.7839 15.1778 46.7556C14.6874 46.6086 14.357 46.1336 14.357 45.5738V39.4612C14.357 39.0993 14.0885 38.7996 13.753 38.7996H0.676285C0.304589 38.7996 5.68496e-06 38.466 5.68496e-06 38.0588C5.68496e-06 37.6517 0.304589 37.3181 0.676285 37.3181H13.7581C14.8371 37.3181 15.7095 38.2794 15.7095 39.4555V44.6634L26.8346 24.5217C27.3302 23.6283 27.3199 22.52 26.8191 21.6322L15.7095 2.11256V7.09426C15.7095 8.27607 14.8319 9.2317 13.7581 9.2317H0.676285C0.304589 9.2317 5.68496e-06 8.89808 5.68496e-06 8.49094C5.68496e-06 8.08381 0.304589 7.75019 0.676285 7.75019H13.7581C14.0885 7.75019 14.3621 7.45615 14.3621 7.0886V1.23044C14.3621 0.676289 14.6874 0.201303 15.1726 0.048629C15.6579 -0.104045 16.1638 0.11083 16.4323 0.580161L27.9652 20.8519C28.7395 22.2147 28.7499 23.9167 27.991 25.2908L16.4426 46.2071C16.2361 46.586 15.8747 46.8008 15.4927 46.8008H15.4824Z" fill="url(#paint1_linear_0_114)"/>
</g>
<defs>
<linearGradient id="paint0_linear_0_114" x1="23.393" y1="23.4021" x2="0.192956" y2="23.4022" gradientUnits="userSpaceOnUse">
<stop stop-color="#007AFF" stop-opacity="0.6"/>
<stop offset="1" stop-color="#007AFF" stop-opacity="0"/>
</linearGradient>
<linearGradient id="paint1_linear_0_114" x1="17.2707" y1="23.4022" x2="0.192951" y2="23.4022" gradientUnits="userSpaceOnUse">
<stop stop-color="#007AFF"/>
<stop offset="1" stop-color="#007AFF" stop-opacity="0"/>
</linearGradient>
</defs>
</svg>
