<svg preserveAspectRatio="none" width="100%" height="100%" overflow="visible" style="display: block;" viewBox="0 0 22 22" fill="none" xmlns="http://www.w3.org/2000/svg">
<g id="robot">
<path id="Vector" fill-rule="evenodd" clip-rule="evenodd" d="M9.16667 2.75C9.16667 1.73748 9.98748 0.916667 11 0.916667C12.0125 0.916667 12.8333 1.73748 12.8333 2.75C12.8333 3.42859 12.4647 4.02107 11.9167 4.33807V5.49995H16.0417C18.0667 5.49995 19.7083 7.14157 19.7083 9.16662V11.4583C19.7083 10.9521 20.1187 10.5417 20.625 10.5417C21.1313 10.5417 21.5417 10.9521 21.5417 11.4583V15.125C21.5417 15.6313 21.1313 16.0417 20.625 16.0417C20.1187 16.0417 19.7083 15.6313 19.7083 15.125V17.4166C19.7083 19.4417 18.0667 21.0833 16.0417 21.0833H5.95833C3.93329 21.0833 2.29167 19.4417 2.29167 17.4166V15.125C2.29167 15.6313 1.88126 16.0417 1.375 16.0417C0.868739 16.0417 0.458333 15.6313 0.458333 15.125V11.4583C0.458333 10.9521 0.868739 10.5417 1.375 10.5417C1.88126 10.5417 2.29167 10.9521 2.29167 11.4583V9.16662C2.29167 7.14157 3.93329 5.49995 5.95833 5.49995H10.0833V4.33807C9.53535 4.02107 9.16667 3.42859 9.16667 2.75ZM5.95833 7.33328C4.94581 7.33328 4.125 8.15409 4.125 9.16662V17.4166C4.125 18.4291 4.94581 19.2499 5.95833 19.2499H16.0417C17.0542 19.2499 17.875 18.4291 17.875 17.4166V9.16662C17.875 8.15409 17.0542 7.33328 16.0417 7.33328H5.95833ZM5.5 11.9167C5.5 10.9041 6.32081 10.0833 7.33333 10.0833C8.34586 10.0833 9.16667 10.9041 9.16667 11.9167C9.16667 12.9292 8.34586 13.75 7.33333 13.75C6.32081 13.75 5.5 12.9292 5.5 11.9167ZM12.8333 11.9167C12.8333 10.9041 13.6541 10.0833 14.6667 10.0833C15.6792 10.0833 16.5 10.9041 16.5 11.9167C16.5 12.9292 15.6792 13.75 14.6667 13.75C13.6541 13.75 12.8333 12.9292 12.8333 11.9167ZM7.79167 16.9583C7.79167 16.4521 8.20207 16.0417 8.70833 16.0417H13.2917C13.7979 16.0417 14.2083 16.4521 14.2083 16.9583C14.2083 17.4646 13.7979 17.875 13.2917 17.875H8.70833C8.20207 17.875 7.79167 17.4646 7.79167 16.9583Z" fill="var(--fill-0, #F8FAFC)"/>
</g>
</svg>
